PathFileType	4	(X/Y/Z)	 2.6Hz3min.trc
DataRate	CameraRate	NumFrames	NumMarkers	Units	OrigDataRate	OrigDataStartFrame	OrigNumFrames
200	200	9	43	m	200	1	1000
Frame#	Time	C7			LSH			RSH			MAN			RASI			LASI			HIPR			HIPL			RPSI			LPSI			COX			RTHI1			RTHI2			RTHI3			RTHI4			RLKN			RMKN			RSHA1			RSHA2			RSHA3			RSHA4			RLMAL			RMMAL			RHEEL			RMET5			RMET1			RTOE			LTHI1			LTHI2			LTHI3			LTHI4			LLKN			LMKN			LSHA1			LSHA2			LSHA3			LSHA4			LLMAL			LMMAL			LHEEL			LMET5			LMET1			LTOE			
		X1	Y1	Z1	X2	Y2	Z2	X3	Y3	Z3	X4	Y4	Z4	X5	Y5	Z5	X6	Y6	Z6	X7	Y7	Z7	X8	Y8	Z8	X9	Y9	Z9	X10	Y10	Z10	X11	Y11	Z11	X12	Y12	Z12	X13	Y13	Z13	X14	Y14	Z14	X15	Y15	Z15	X16	Y16	Z16	X17	Y17	Z17	X18	Y18	Z18	X19	Y19	Z19	X20	Y20	Z20	X21	Y21	Z21	X22	Y22	Z22	X23	Y23	Z23	X24	Y24	Z24	X25	Y25	Z25	X26	Y26	Z26	X27	Y27	Z27	X28	Y28	Z28	X29	Y29	Z29	X30	Y30	Z30	X31	Y31	Z31	X32	Y32	Z32	X33	Y33	Z33	X34	Y34	Z34	X35	Y35	Z35	X36	Y36	Z36	X37	Y37	Z37	X38	Y38	Z38	X39	Y39	Z39	X40	Y40	Z40	X41	Y41	Z41	X42	Y42	Z42	X43	Y43	Z43	
1	0.0050	-0.324611	1.437787	-0.567294	-0.236025	1.432065	-0.703447	-0.268002	1.420342	-0.407339	-0.201692	1.384485	-0.551549	-0.179859	0.948518	-0.439360	-0.167935	0.955866	-0.663484	-0.240654	1.025783	-0.412069	-0.230533	1.011390	-0.701558	-0.335548	1.007179	-0.506447	-0.334578	1.003191	-0.591104	-0.337701	1.004423	-0.553472	-0.319579	0.778369	-0.385497	-0.309469	0.719644	-0.376512	-0.248269	0.729125	-0.356846	-0.249923	0.790455	-0.363604	-0.300448	0.535844	-0.377826	-0.262396	0.504591	-0.503975	-0.382529	0.410603	-0.376226	-0.384669	0.368480	-0.386279	-0.330781	0.403773	-0.353920	-0.331434	0.363695	-0.358015	-0.366002	0.161930	-0.380779	-0.321930	0.168065	-0.451394	-0.406727	0.160106	-0.438824	-0.300984	0.070567	-0.339743	-0.248604	0.067256	-0.395869	-0.232346	0.056747	-0.385110	-0.279454	0.775318	-0.742700	-0.266376	0.715410	-0.749530	-0.201968	0.722938	-0.746014	-0.207435	0.782559	-0.740063	-0.272747	0.531163	-0.750832	-0.255765	0.508379	-0.625328	-0.346793	0.372497	-0.767484	-0.349848	0.332250	-0.762734	-0.290695	0.331026	-0.778088	-0.294984	0.374852	-0.782305	-0.320408	0.168650	-0.778150	-0.299614	0.177678	-0.697575	-0.378398	0.170541	-0.725906	-0.266243	0.073965	-0.794111	-0.228742	0.066282	-0.727872	-0.211961	0.051252	-0.733289	
2	0.0100	-0.324673	1.439996	-0.567099	-0.236282	1.434278	-0.703571	-0.267960	1.422744	-0.407176	-0.202098	1.386494	-0.551672	-0.180069	0.950835	-0.439356	-0.168160	0.958396	-0.663166	-0.240763	1.028193	-0.412085	-0.230646	1.014062	-0.701379	-0.335894	1.010115	-0.506370	-0.334832	1.006107	-0.591033	-0.338010	1.007288	-0.553489	-0.319568	0.780467	-0.385521	-0.309319	0.721841	-0.376442	-0.248117	0.731349	-0.356902	-0.249864	0.792693	-0.363781	-0.299579	0.537870	-0.377651	-0.262075	0.506379	-0.503911	-0.382084	0.412691	-0.375780	-0.384604	0.370662	-0.385742	-0.330274	0.405655	-0.353739	-0.330952	0.365651	-0.357955	-0.365630	0.164019	-0.381083	-0.321286	0.170038	-0.451403	-0.406003	0.161496	-0.439352	-0.300007	0.074437	-0.338385	-0.247221	0.070733	-0.393896	-0.230958	0.060316	-0.382757	-0.279385	0.778180	-0.742371	-0.266438	0.718260	-0.749442	-0.202037	0.725652	-0.745861	-0.207322	0.785220	-0.739652	-0.272016	0.533366	-0.750700	-0.255618	0.510315	-0.625226	-0.346538	0.374771	-0.766989	-0.349677	0.334587	-0.762103	-0.290586	0.333093	-0.777670	-0.294750	0.376908	-0.782057	-0.320055	0.170719	-0.777390	-0.299010	0.179998	-0.696910	-0.377875	0.171847	-0.724931	-0.264576	0.077077	-0.793759	-0.226578	0.069929	-0.727880	-0.209633	0.055123	-0.733636	
3	0.0150	-0.324630	1.442031	-0.566865	-0.236487	1.436200	-0.703791	-0.267924	1.424812	-0.406994	-0.202343	1.388466	-0.551731	-0.180296	0.952858	-0.439344	-0.168410	0.960549	-0.662912	-0.240943	1.030285	-0.412077	-0.230831	1.016409	-0.701196	-0.336256	1.012538	-0.506266	-0.335117	1.008517	-0.590972	-0.338389	1.009655	-0.553492	-0.319564	0.782245	-0.385409	-0.309001	0.723666	-0.376357	-0.247872	0.733366	-0.356923	-0.249790	0.794696	-0.363956	-0.298778	0.539532	-0.377433	-0.261580	0.507996	-0.503790	-0.381545	0.414618	-0.375407	-0.384351	0.372632	-0.385424	-0.329719	0.407409	-0.353586	-0.330431	0.367480	-0.357913	-0.365241	0.165943	-0.381265	-0.320740	0.171881	-0.451424	-0.405407	0.162835	-0.439812	-0.299395	0.077671	-0.337237	-0.246208	0.073756	-0.392264	-0.229681	0.063646	-0.381034	-0.279261	0.780570	-0.742061	-0.266393	0.720681	-0.749369	-0.201967	0.728010	-0.745785	-0.207156	0.787512	-0.739342	-0.271164	0.535281	-0.750544	-0.255145	0.512059	-0.625133	-0.346266	0.376917	-0.766609	-0.349556	0.336766	-0.761601	-0.290495	0.334947	-0.777203	-0.294454	0.378760	-0.781762	-0.319795	0.172555	-0.776623	-0.298530	0.182113	-0.696215	-0.377506	0.173012	-0.723972	-0.263149	0.079957	-0.793383	-0.224774	0.073114	-0.727720	-0.207578	0.058337	-0.733443	
4	0.0200	-0.324596	1.444001	-0.566660	-0.236688	1.438037	-0.704023	-0.267898	1.426804	-0.406784	-0.202570	1.390368	-0.551786	-0.180531	0.954803	-0.439335	-0.168663	0.962618	-0.662673	-0.241130	1.032286	-0.412069	-0.231016	1.018652	-0.701018	-0.336616	1.014827	-0.506160	-0.335402	1.010787	-0.590902	-0.338763	1.011894	-0.553482	-0.319540	0.783953	-0.385290	-0.308664	0.725424	-0.376254	-0.247604	0.735324	-0.356933	-0.249704	0.796641	-0.364118	-0.297947	0.541191	-0.377193	-0.261043	0.509583	-0.503656	-0.381020	0.416495	-0.375076	-0.384077	0.374573	-0.385111	-0.329163	0.409126	-0.353427	-0.329916	0.369263	-0.357868	-0.364867	0.167814	-0.381431	-0.320231	0.173686	-0.451452	-0.404855	0.164130	-0.440236	-0.298765	0.080879	-0.336209	-0.245221	0.076708	-0.390776	-0.228580	0.066810	-0.379367	-0.279120	0.782836	-0.741760	-0.266310	0.722973	-0.749292	-0.201863	0.730263	-0.745719	-0.206980	0.789706	-0.739058	-0.270306	0.537127	-0.750388	-0.254591	0.513761	-0.625038	-0.345988	0.379008	-0.766239	-0.349434	0.338892	-0.761119	-0.290399	0.336744	-0.776730	-0.294150	0.380555	-0.781445	-0.319547	0.174336	-0.775860	-0.298075	0.184158	-0.695520	-0.377167	0.174148	-0.723033	-0.261799	0.082743	-0.792984	-0.223042	0.076253	-0.727562	-0.205625	0.061567	-0.733347	
5	0.0250	-0.324536	1.445805	-0.566484	-0.236873	1.439624	-0.704323	-0.267885	1.428539	-0.406549	-0.202705	1.392156	-0.551808	-0.180785	0.956508	-0.439324	-0.168936	0.964402	-0.662483	-0.241353	1.034019	-0.412050	-0.231238	1.020606	-0.700846	-0.336976	1.016707	-0.506042	-0.335701	1.012644	-0.590829	-0.339158	1.013735	-0.553450	-0.319488	0.785418	-0.385106	-0.308229	0.726928	-0.376117	-0.247263	0.737106	-0.356909	-0.249600	0.798395	-0.364257	-0.297145	0.542641	-0.376914	-0.260374	0.511049	-0.503479	-0.380464	0.418247	-0.374797	-0.383689	0.376368	-0.384913	-0.328592	0.410732	-0.353287	-0.329399	0.370920	-0.357824	-0.364515	0.169537	-0.381536	-0.319817	0.175373	-0.451498	-0.404424	0.165341	-0.440578	-0.298223	0.083711	-0.335442	-0.244466	0.079304	-0.389608	-0.227675	0.069699	-0.378105	-0.278932	0.784718	-0.741484	-0.266123	0.724898	-0.749215	-0.201651	0.732218	-0.745700	-0.206767	0.791605	-0.738855	-0.269387	0.538753	-0.750225	-0.253789	0.515313	-0.624943	-0.345694	0.380954	-0.765932	-0.349330	0.340864	-0.760723	-0.290294	0.338363	-0.776228	-0.293804	0.382189	-0.781085	-0.319357	0.175929	-0.775102	-0.297720	0.186018	-0.694815	-0.376937	0.175183	-0.722128	-0.260653	0.085304	-0.792552	-0.221581	0.079116	-0.727312	-0.203927	0.064456	-0.733077	
6	0.0300	-0.324513	1.447424	-0.566394	-0.237078	1.440981	-0.704659	-0.267902	1.430045	-0.406279	-0.202799	1.393750	-0.551825	-0.181060	0.958000	-0.439322	-0.169221	0.965955	-0.662332	-0.241594	1.035510	-0.412028	-0.231468	1.022272	-0.700695	-0.337330	1.018223	-0.505910	-0.336009	1.014130	-0.590728	-0.339534	1.015218	-0.553354	-0.319384	0.786666	-0.384917	-0.307700	0.728241	-0.375963	-0.246867	0.738717	-0.356851	-0.249470	0.799985	-0.364355	-0.296302	0.544008	-0.376603	-0.259593	0.512429	-0.503268	-0.379939	0.419874	-0.374583	-0.383310	0.378035	-0.384739	-0.328008	0.412221	-0.353141	-0.328898	0.372439	-0.357763	-0.364214	0.171121	-0.381626	-0.319498	0.176941	-0.451576	-0.404117	0.166459	-0.440846	-0.297804	0.086182	-0.334812	-0.243844	0.081677	-0.388801	-0.226917	0.072306	-0.377235	-0.278701	0.786258	-0.741242	-0.265834	0.726471	-0.749121	-0.201347	0.733892	-0.745709	-0.206525	0.793236	-0.738719	-0.268459	0.540188	-0.750060	-0.252776	0.516732	-0.624846	-0.345381	0.382732	-0.765653	-0.349215	0.342663	-0.760363	-0.290169	0.339833	-0.775710	-0.293431	0.383663	-0.780673	-0.319206	0.177363	-0.774364	-0.297455	0.187673	-0.694116	-0.376790	0.176132	-0.721277	-0.259701	0.087595	-0.792068	-0.220386	0.081646	-0.727006	-0.202521	0.067046	-0.732729	
7	0.0350	-0.324495	1.448831	-0.566353	-0.237255	1.442068	-0.705024	-0.267938	1.431294	-0.405990	-0.202845	1.395133	-0.551833	-0.181363	0.959247	-0.439321	-0.169525	0.967246	-0.662223	-0.241858	1.036720	-0.412005	-0.231725	1.023626	-0.700560	-0.337664	1.019333	-0.505784	-0.336314	1.015204	-0.590625	-0.339906	1.016317	-0.553240	-0.319243	0.787693	-0.384690	-0.307125	0.729347	-0.375757	-0.246414	0.740135	-0.356764	-0.249315	0.801374	-0.364408	-0.295432	0.545230	-0.376259	-0.258712	0.513706	-0.503014	-0.379402	0.421344	-0.374434	-0.382873	0.379565	-0.384619	-0.327430	0.413566	-0.352969	-0.328422	0.373796	-0.357683	-0.363976	0.172533	-0.381693	-0.319300	0.178355	-0.451677	-0.403942	0.167464	-0.441019	-0.297377	0.088389	-0.334471	-0.243344	0.083778	-0.388333	-0.226405	0.074585	-0.376674	-0.278427	0.787404	-0.741039	-0.265428	0.727655	-0.749016	-0.200933	0.735250	-0.745752	-0.206256	0.794565	-0.738664	-0.267528	0.541409	-0.749894	-0.251555	0.517992	-0.624748	-0.345048	0.384303	-0.765413	-0.349089	0.344247	-0.760061	-0.290004	0.341115	-0.775185	-0.293025	0.384953	-0.780224	-0.319097	0.178608	-0.773649	-0.297310	0.189108	-0.693419	-0.376745	0.176980	-0.720494	-0.258957	0.089588	-0.791546	-0.219458	0.083897	-0.726643	-0.201410	0.069383	-0.732388	
8	0.0400	-0.324486	1.450025	-0.566362	-0.237385	1.442886	-0.705400	-0.267987	1.432300	-0.405694	-0.202862	1.396260	-0.551845	-0.181689	0.960263	-0.439321	-0.169844	0.968297	-0.662150	-0.242140	1.037654	-0.411983	-0.232014	1.024671	-0.700442	-0.337974	1.020067	-0.505669	-0.336620	1.015899	-0.590525	-0.340268	1.017063	-0.553109	-0.319064	0.788494	-0.384425	-0.306523	0.730247	-0.375504	-0.245920	0.741344	-0.356648	-0.249142	0.802554	-0.364416	-0.294532	0.546316	-0.375888	-0.257750	0.514878	-0.502713	-0.378862	0.422655	-0.374329	-0.382418	0.380911	-0.384510	-0.326887	0.414730	-0.352804	-0.327985	0.374974	-0.357577	-0.363805	0.173740	-0.381744	-0.319218	0.179600	-0.451802	-0.403899	0.168334	-0.441103	-0.296922	0.090276	-0.334286	-0.242986	0.085582	-0.388177	-0.225987	0.076573	-0.376487	-0.278119	0.788163	-0.740881	-0.264920	0.728458	-0.748905	-0.200419	0.736301	-0.745816	-0.205965	0.795602	-0.738680	-0.266616	0.542419	-0.749732	-0.250172	0.519090	-0.624652	-0.344693	0.385649	-0.765204	-0.348932	0.345589	-0.759800	-0.289788	0.342207	-0.774666	-0.292592	0.386052	-0.779758	-0.319022	0.179665	-0.772963	-0.297284	0.190324	-0.692740	-0.376795	0.177731	-0.719803	-0.258369	0.091350	-0.790987	-0.218792	0.085834	-0.726174	-0.200599	0.071419	-0.731937	
9	0.0450	-0.324487	1.450987	-0.566409	-0.237472	1.443431	-0.705781	-0.268042	1.433040	-0.405426	-0.202854	1.397117	-0.551860	-0.182039	0.961052	-0.439317	-0.170180	0.969114	-0.662108	-0.242442	1.038321	-0.411960	-0.232340	1.025420	-0.700346	-0.338264	1.020441	-0.505567	-0.336940	1.016242	-0.590429	-0.340629	1.017477	-0.552964	-0.318862	0.789073	-0.384135	-0.305903	0.730953	-0.375211	-0.245401	0.742339	-0.356508	-0.248958	0.803517	-0.364376	-0.293639	0.547195	-0.375518	-0.256724	0.515928	-0.502373	-0.378300	0.423820	-0.374195	-0.381986	0.382074	-0.384433	-0.326363	0.415707	-0.352629	-0.327588	0.375956	-0.357444	-0.363702	0.174763	-0.381807	-0.319248	0.180652	-0.451955	-0.403979	0.169082	-0.441118	-0.296484	0.091751	-0.334265	-0.242718	0.087130	-0.388323	-0.225628	0.078295	-0.376650	-0.277784	0.788555	-0.740777	-0.264320	0.728898	-0.748781	-0.199822	0.737057	-0.745887	-0.205661	0.796353	-0.738756	-0.265732	0.543220	-0.749575	-0.248679	0.520017	-0.624563	-0.344315	0.386749	-0.765022	-0.348738	0.346675	-0.759570	-0.289521	0.343104	-0.774168	-0.292131	0.386950	-0.779298	-0.318988	0.180532	-0.772315	-0.297389	0.191320	-0.692081	-0.376939	0.178367	-0.719207	-0.257950	0.092851	-0.790406	-0.218402	0.087423	-0.725603	-0.200086	0.073104	-0.731378	
